<svg xmlns="http://www.w3.org/2000/svg" width="320" height="320" viewBox="0 0 320 320" version="1.1"><path d="M 164.222 105.750 L 164.500 119.500 187.250 119.769 L 210 120.038 210 174.019 L 210 228 228.500 228 L 247 228 247 174 L 247 120 269 120 L 291 120 291 106 L 291 92 227.472 92 L 163.944 92 164.222 105.750 M 40 160.437 L 40 228 75.959 228 C 108.972 228, 127 226.975, 127 225.097 C 127 224.734, 128.956 223.859, 131.347 223.153 C 136.540 221.620, 144.830 215.094, 147.203 210.673 C 148.139 208.928, 149.358 206.976, 149.912 206.336 C 153.690 201.966, 153.370 176.227, 149.489 172.346 C 148.670 171.527, 148 170.233, 148 169.471 C 148 167.912, 141.969 161.541, 137.615 158.500 C 132.350 154.823, 132.405 154.885, 133.892 154.293 C 136.294 153.336, 143 146.829, 143 145.455 C 143 144.733, 143.788 143.355, 144.750 142.393 C 146.899 140.244, 147.405 116.486, 145.329 115.204 C 144.685 114.806, 143.824 113.145, 143.414 111.514 C 141.828 105.196, 129.079 96, 121.905 96 C 120.949 96, 119.979 95.438, 119.751 94.750 C 119.429 93.785, 110.287 93.429, 79.667 93.187 L 40 92.874 40 160.437 M 77 131.082 L 77 145.163 89.278 144.832 C 97.205 144.617, 102.077 144.057, 103.028 143.250 C 103.838 142.562, 105.582 141.174, 106.904 140.166 C 109.897 137.883, 111.093 128.410, 108.904 124.320 C 106.325 119.502, 98.946 117, 87.313 117 L 77 117 77 131.082 M 77 186.500 L 77 203 90.374 203 C 109.344 203, 114.317 200.057, 115.645 188.047 C 117.097 174.908, 110.450 170.205, 90.250 170.081 L 77 170 77 186.500" stroke="none" fill="#b51200" fill-rule="evenodd"/></svg>